<?xml version="1.0" encoding="UTF-8"?>
<svg xmlns="http://www.w3.org/2000/svg" version="1.1" viewBox="0 0 700 700">
  <defs>
    <style>
      .cls-1 {
        fill: none;
        stroke: #000;
        stroke-miterlimit: 10;
      }

      .cls-2 {
        fill: #e53292;
      }

      .cls-2, .cls-3, .cls-4, .cls-5 {
        stroke-width: 0px;
      }

      .cls-3 {
        fill: #f58132;
      }

      .cls-4 {
        fill: #77c159;
      }

      .cls-5 {
        fill: #1bace3;
      }

      .cls-6 {
        display: none;
      }
    </style>
  </defs>
  <g id="Layer_3" data-name="Layer 3" class="cls-6">
    <rect class="cls-1" x="102" y="102.6" width="496" height="496"/>
    <circle class="cls-1" cx="350" cy="349.1" r="350.7"/>
  </g>
  <g id="Layer_2" data-name="Layer 2">
    <g id="Layer_1-2" data-name="Layer 1-2">
      <g id="Logo">
        <path class="cls-4" d="M387.2,114.4v145.8l-16.6,40.2h-41.2l-16.6-40.2V114.4c0-6.8,5.6-12.4,12.4-12.4h49.6c6.9,0,12.4,5.6,12.4,12.4Z"/>
        <path class="cls-5" d="M210,160.1l102.9,100.1,16.7,40.2-29.1,29.1-40.2-16.7-100.1-102.9c-4.7-4.9-4.7-12.6.1-17.4l32.3-32.3c4.8-4.8,12.6-4.8,17.4-.1Z"/>
        <path class="cls-2" d="M114.4,312.8h145.8l40.2,16.6v41.2l-40.2,16.6H114.4c-6.8,0-12.4-5.5-12.4-12.4v-49.6c0-6.9,5.6-12.4,12.4-12.4h0Z"/>
        <path class="cls-3" d="M157.4,490l102.8-102.8,40.2-16.7,29.1,29.1-16.7,40.2-103.2,100.4c-4.7,4.6-12.3,4.7-17.1.2l-34.8-32.5c-5.1-4.8-5.3-12.9-.3-17.8h0Z"/>
        <path class="cls-5" d="M312.8,585.6v-145.8l16.6-40.2h41.2l16.6,40.2v145.8c0,6.9-5.5,12.4-12.4,12.4h-49.6c-6.9,0-12.4-5.5-12.4-12.4h0Z"/>
        <path class="cls-4" d="M490,539.9l-102.9-100.1-16.7-40.2,29.1-29.1,40.2,16.7,100.1,102.9c4.7,4.9,4.7,12.6-.1,17.4l-32.3,32.3c-4.8,4.8-12.6,4.9-17.4.1h0Z"/>
        <path class="cls-3" d="M585.6,387.2h-145.8l-40.2-16.6v-41.2l40.2-16.6h145.8c6.9,0,12.4,5.6,12.4,12.4v49.6c0,6.9-5.5,12.4-12.4,12.4h0Z"/>
        <path class="cls-2" d="M539.9,210l-100.1,102.9-40.2,16.7-29.1-29.1,16.7-40.2,102.9-100.1c4.9-4.7,12.6-4.7,17.4.1l32.3,32.3c4.8,4.8,4.9,12.6.1,17.4h0Z"/>
      </g>
    </g>
  </g>
</svg>